<?xml version="1.0" encoding="UTF-8" ?>
<!DOCTYPE svg PUBLIC "-//W3C//DTD SVG 1.1//EN" "http://www.w3.org/Graphics/SVG/1.1/DTD/svg11.dtd">
<svg width="1000pt" height="1000pt" viewBox="0 0 1000 1000" version="1.1" xmlns="http://www.w3.org/2000/svg">
<path fill="#ffffff" d=" M 0.00 0.00 L 488.52 0.00 C 416.25 1.97 344.34 19.26 279.47 51.29 C 214.39 83.22 156.42 129.51 110.94 185.96 C 66.68 240.73 34.15 304.96 16.39 373.12 C 6.32 411.04 1.03 450.19 0.00 489.40 L 0.00 0.00 Z" />
<path fill="#4051b4" d=" M 488.52 0.00 L 503.18 0.00 C 503.69 15.11 503.18 30.24 503.46 45.35 L 503.46 45.74 C 498.47 48.71 494.16 52.60 489.65 56.21 C 489.11 47.93 489.46 39.22 486.11 31.45 C 484.99 32.92 483.94 34.44 483.13 36.10 C 483.12 35.54 483.09 34.42 483.08 33.86 C 477.73 37.52 473.04 42.02 467.78 45.78 C 462.94 49.25 458.65 53.45 453.55 56.55 C 453.73 48.31 453.44 40.01 451.43 31.98 C 450.47 32.52 449.51 33.07 448.57 33.62 C 445.66 35.27 442.89 37.15 440.30 39.26 C 384.69 83.38 328.77 127.08 273.14 171.15 C 193.14 234.15 113.16 297.19 33.22 360.25 C 27.56 364.48 22.38 369.34 16.39 373.12 C 34.15 304.96 66.68 240.73 110.94 185.96 C 156.42 129.51 214.39 83.22 279.47 51.29 C 344.34 19.26 416.25 1.97 488.52 0.00 Z" />
<path fill="#5972ff" d=" M 503.18 0.00 L 511.61 0.00 C 555.23 1.35 598.75 7.87 640.63 20.26 C 713.90 41.60 782.05 80.16 838.20 131.83 C 886.34 175.97 925.60 229.72 953.18 288.92 C 978.14 342.72 993.67 400.92 998.26 460.07 C 1003.72 528.45 995.10 597.98 972.61 662.81 C 948.30 733.90 907.55 799.26 854.59 852.55 C 804.81 902.75 744.21 942.11 678.15 967.29 C 632.00 984.86 583.23 995.55 533.97 998.95 C 529.56 999.29 525.13 999.52 520.74 999.99 C 514.93 999.90 509.12 999.62 503.33 999.13 C 503.46 984.61 503.36 970.10 503.37 955.58 L 503.41 954.74 C 512.77 954.46 521.57 949.53 528.19 943.12 C 533.70 937.47 537.42 930.23 539.77 922.75 C 543.90 905.76 545.85 888.34 547.24 870.94 C 547.44 858.03 549.08 845.12 547.70 832.22 C 546.95 825.83 547.81 819.37 546.95 812.98 C 543.86 764.53 538.04 716.30 533.55 667.97 C 529.25 620.38 525.61 572.71 524.02 524.97 C 522.94 517.68 524.05 510.29 523.13 503.00 C 522.31 496.34 522.86 489.63 522.73 482.94 C 521.62 463.65 522.41 444.30 522.14 424.99 C 521.18 415.05 521.70 404.69 525.29 395.28 C 531.68 380.07 544.73 369.24 553.62 355.63 C 562.97 341.34 570.15 325.16 571.85 308.02 C 573.08 297.04 573.27 285.99 574.07 274.98 C 573.96 268.98 573.64 262.97 573.94 256.97 C 574.54 242.99 572.96 229.04 573.34 215.06 C 572.37 203.42 572.20 191.74 571.58 180.07 C 569.22 140.03 566.42 99.98 561.53 60.16 C 560.19 50.75 559.35 41.21 556.39 32.13 C 555.94 32.22 555.05 32.40 554.60 32.49 C 554.52 32.85 554.38 33.56 554.30 33.92 C 549.44 35.38 546.05 39.29 542.07 42.19 C 536.22 46.48 530.89 51.43 524.79 55.37 C 524.03 47.58 524.94 38.99 520.87 32.00 C 520.35 32.38 519.33 33.14 518.81 33.53 C 513.51 37.23 508.78 41.68 503.46 45.35 C 503.18 30.24 503.69 15.11 503.18 0.00 Z" />
<path fill="#ffffff" d=" M 511.61 0.00 L 1000.00 0.00 L 1000.00 1000.00 L 521.60 1000.00 L 520.74 999.99 C 525.13 999.52 529.56 999.29 533.97 998.95 C 583.23 995.55 632.00 984.86 678.15 967.29 C 744.21 942.11 804.81 902.75 854.59 852.55 C 907.55 799.26 948.30 733.90 972.61 662.81 C 995.10 597.98 1003.72 528.45 998.26 460.07 C 993.67 400.92 978.14 342.72 953.18 288.92 C 925.60 229.72 886.34 175.97 838.20 131.83 C 782.05 80.16 713.90 41.60 640.63 20.26 C 598.75 7.87 555.23 1.35 511.61 0.00 Z" />
<path fill="#d6d7db" d=" M 520.87 32.00 C 524.94 38.99 524.03 47.58 524.79 55.37 C 524.86 58.59 525.07 61.80 525.37 65.00 C 525.96 71.64 525.14 78.32 525.84 84.96 C 526.87 94.44 525.72 104.00 526.55 113.49 C 527.58 125.02 526.10 136.64 527.48 148.15 C 528.23 156.33 527.11 164.58 528.12 172.75 C 528.93 179.13 528.12 185.56 528.76 191.95 C 529.59 206.02 530.10 220.15 532.59 234.05 C 533.37 238.25 533.79 243.22 537.81 245.70 C 539.18 243.27 540.49 240.76 541.09 238.01 C 544.72 222.80 544.96 207.09 546.40 191.59 C 547.51 170.06 548.53 148.54 548.99 126.99 C 550.09 118.35 548.86 109.62 549.99 100.99 C 550.68 95.29 549.88 89.53 550.63 83.84 C 551.54 77.48 550.49 71.04 551.37 64.68 C 552.01 54.40 552.08 44.02 554.30 33.92 C 554.38 33.56 554.52 32.85 554.60 32.49 C 555.05 32.40 555.94 32.22 556.39 32.13 C 559.35 41.21 560.19 50.75 561.53 60.16 C 566.42 99.98 569.22 140.03 571.58 180.07 C 572.20 191.74 572.37 203.42 573.34 215.06 C 572.96 229.04 574.54 242.99 573.94 256.97 C 573.64 262.97 573.96 268.98 574.07 274.98 C 573.27 285.99 573.08 297.04 571.85 308.02 C 570.15 325.16 562.97 341.34 553.62 355.63 C 544.73 369.24 531.68 380.07 525.29 395.28 C 521.70 404.69 521.18 415.05 522.14 424.99 C 522.41 444.30 521.62 463.65 522.73 482.94 C 522.86 489.63 522.31 496.34 523.13 503.00 C 524.05 510.29 522.94 517.68 524.02 524.97 C 525.61 572.71 529.25 620.38 533.55 667.97 C 538.04 716.30 543.86 764.53 546.95 812.98 C 547.81 819.37 546.95 825.83 547.70 832.22 C 549.08 845.12 547.44 858.03 547.24 870.94 C 545.85 888.34 543.90 905.76 539.77 922.75 C 537.42 930.23 533.70 937.47 528.19 943.12 C 521.57 949.53 512.77 954.46 503.41 954.74 C 494.85 955.53 486.05 953.11 479.35 947.66 C 471.62 941.45 466.23 932.59 463.94 922.98 C 458.26 899.08 456.87 874.44 455.64 850.00 C 456.15 842.30 454.52 834.69 454.84 827.01 C 455.02 815.34 454.59 803.66 455.02 792.00 C 456.47 781.72 454.91 771.31 456.14 761.03 C 456.68 756.36 456.18 751.66 456.48 746.99 C 457.51 737.37 457.48 727.67 457.89 718.01 C 458.74 708.90 459.26 699.77 459.56 690.63 C 462.66 647.74 466.04 604.88 470.11 562.07 C 474.07 520.37 478.21 478.70 481.94 436.98 C 482.57 431.85 482.19 426.66 482.66 421.52 C 483.63 408.10 479.87 394.59 472.86 383.18 C 465.00 370.06 453.69 359.45 445.46 346.59 C 436.98 334.03 431.94 319.16 431.27 304.01 C 429.56 292.05 431.22 279.95 429.97 267.97 C 431.38 251.02 429.41 233.95 431.20 217.03 C 431.36 202.32 432.04 187.64 433.01 172.97 C 434.78 139.26 437.29 105.56 441.13 72.01 C 442.99 59.11 444.26 46.00 448.57 33.62 C 449.51 33.07 450.47 32.52 451.43 31.98 C 453.44 40.01 453.73 48.31 453.55 56.55 C 454.96 68.99 454.12 81.53 454.32 94.02 C 453.89 101.70 455.50 109.29 455.16 116.97 C 455.20 130.00 454.98 143.04 455.25 156.07 C 456.28 166.68 454.99 177.36 456.35 187.95 C 456.17 198.02 457.29 208.03 457.97 218.06 C 459.25 227.10 459.02 236.96 464.02 244.94 C 464.48 244.87 465.41 244.74 465.88 244.68 C 469.36 239.10 469.71 232.28 470.85 225.96 C 473.98 201.40 475.03 176.65 476.03 151.94 C 476.98 145.34 476.12 138.65 477.19 132.06 C 478.12 106.36 479.16 80.65 480.91 54.98 C 481.47 48.66 482.36 42.39 483.13 36.10 C 483.94 34.44 484.99 32.92 486.11 31.45 C 489.46 39.22 489.11 47.93 489.65 56.21 C 489.14 63.50 490.57 70.73 490.37 78.02 C 490.29 93.35 490.39 108.68 490.31 124.01 C 490.28 129.37 491.42 134.65 491.19 140.01 C 490.92 163.70 491.24 187.38 492.96 210.99 C 494.12 222.54 494.24 234.62 499.55 245.23 C 500.87 244.67 502.21 244.11 503.49 243.45 C 506.15 238.00 507.25 231.97 508.11 226.02 C 511.23 201.13 512.36 176.04 513.00 151.00 C 513.51 146.01 513.58 141.00 513.43 135.99 C 513.21 129.30 514.55 122.68 514.23 115.99 C 513.74 106.32 515.32 96.70 514.84 87.03 C 516.10 69.20 515.63 51.19 518.81 33.53 C 519.33 33.14 520.35 32.38 520.87 32.00 Z" />
<path fill="#36459b" d=" M 440.30 39.26 C 442.89 37.15 445.66 35.27 448.57 33.62 C 444.26 46.00 442.99 59.11 441.13 72.01 C 437.29 105.56 434.78 139.26 433.01 172.97 C 432.04 187.64 431.36 202.32 431.20 217.03 C 429.41 233.95 431.38 251.02 429.97 267.97 C 431.22 279.95 429.56 292.05 431.27 304.01 C 431.94 319.16 436.98 334.03 445.46 346.59 C 453.69 359.45 465.00 370.06 472.86 383.18 C 479.87 394.59 483.63 408.10 482.66 421.52 C 482.19 426.66 482.57 431.85 481.94 436.98 C 478.21 478.70 474.07 520.37 470.11 562.07 C 466.04 604.88 462.66 647.74 459.56 690.63 C 459.26 699.77 458.74 708.90 457.89 718.01 C 457.48 727.67 457.51 737.37 456.48 746.99 C 456.18 751.66 456.68 756.36 456.14 761.03 C 454.91 771.31 456.47 781.72 455.02 792.00 C 454.59 803.66 455.02 815.34 454.84 827.01 C 454.52 834.69 456.15 842.30 455.64 850.00 C 456.87 874.44 458.26 899.08 463.94 922.98 C 466.23 932.59 471.62 941.45 479.35 947.66 C 486.05 953.11 494.85 955.53 503.41 954.74 L 503.37 955.58 C 476.20 963.56 449.15 971.92 422.01 979.97 C 412.83 982.90 403.39 985.08 394.48 988.76 C 330.55 975.05 269.40 948.53 215.65 911.30 C 154.56 869.17 103.12 813.17 66.26 748.77 C 24.39 676.02 1.48 592.58 0.00 508.68 L 0.00 489.40 C 1.03 450.19 6.32 411.04 16.39 373.12 C 22.38 369.34 27.56 364.48 33.22 360.25 C 113.16 297.19 193.14 234.15 273.14 171.15 C 328.77 127.08 384.69 83.38 440.30 39.26 Z" />
<path fill="#36459b" d=" M 467.78 45.78 C 473.04 42.02 477.73 37.52 483.08 33.86 C 483.09 34.42 483.12 35.54 483.13 36.10 C 482.36 42.39 481.47 48.66 480.91 54.98 C 479.16 80.65 478.12 106.36 477.19 132.06 C 476.12 138.65 476.98 145.34 476.03 151.94 C 475.03 176.65 473.98 201.40 470.85 225.96 C 469.71 232.28 469.36 239.10 465.88 244.68 C 465.41 244.74 464.48 244.87 464.02 244.94 C 459.02 236.96 459.25 227.10 457.97 218.06 C 457.29 208.03 456.17 198.02 456.35 187.95 C 454.99 177.36 456.28 166.68 455.25 156.07 C 454.98 143.04 455.20 130.00 455.16 116.97 C 455.50 109.29 453.89 101.70 454.32 94.02 C 454.12 81.53 454.96 68.99 453.55 56.55 C 458.65 53.45 462.94 49.25 467.78 45.78 Z" />
<path fill="#6373cf" d=" M 503.46 45.35 C 508.78 41.68 513.51 37.23 518.81 33.53 C 515.63 51.19 516.10 69.20 514.84 87.03 C 515.32 96.70 513.74 106.32 514.23 115.99 C 514.55 122.68 513.21 129.30 513.43 135.99 C 513.58 141.00 513.51 146.01 513.00 151.00 C 512.36 176.04 511.23 201.13 508.11 226.02 C 507.25 231.97 506.15 238.00 503.49 243.45 C 503.48 177.55 503.55 111.64 503.46 45.74 L 503.46 45.35 Z" />
<path fill="#6373cf" d=" M 542.07 42.19 C 546.05 39.29 549.44 35.38 554.30 33.92 C 552.08 44.02 552.01 54.40 551.37 64.68 C 550.49 71.04 551.54 77.48 550.63 83.84 C 549.88 89.53 550.68 95.29 549.99 100.99 C 548.86 109.62 550.09 118.35 548.99 126.99 C 548.53 148.54 547.51 170.06 546.40 191.59 C 544.96 207.09 544.72 222.80 541.09 238.01 C 540.49 240.76 539.18 243.27 537.81 245.70 C 533.79 243.22 533.37 238.25 532.59 234.05 C 530.10 220.15 529.59 206.02 528.76 191.95 C 528.12 185.56 528.93 179.13 528.12 172.75 C 527.11 164.58 528.23 156.33 527.48 148.15 C 526.10 136.64 527.58 125.02 526.55 113.49 C 525.72 104.00 526.87 94.44 525.84 84.96 C 525.14 78.32 525.96 71.64 525.37 65.00 C 525.07 61.80 524.86 58.59 524.79 55.37 C 530.89 51.43 536.22 46.48 542.07 42.19 Z" />
<path fill="#36459b" d=" M 489.65 56.21 C 494.16 52.60 498.47 48.71 503.46 45.74 C 503.55 111.64 503.48 177.55 503.49 243.45 C 502.21 244.11 500.87 244.67 499.55 245.23 C 494.24 234.62 494.12 222.54 492.96 210.99 C 491.24 187.38 490.92 163.70 491.19 140.01 C 491.42 134.65 490.28 129.37 490.31 124.01 C 490.39 108.68 490.29 93.35 490.37 78.02 C 490.57 70.73 489.14 63.50 489.65 56.21 Z" />
<path fill="#ffffff" d=" M 0.00 508.68 C 1.48 592.58 24.39 676.02 66.26 748.77 C 103.12 813.17 154.56 869.17 215.65 911.30 C 269.40 948.53 330.55 975.05 394.48 988.76 C 424.96 995.44 456.09 999.06 487.27 1000.00 L 0.00 1000.00 L 0.00 508.68 Z" />
<path fill="#4051b4" d=" M 422.01 979.97 C 449.15 971.92 476.20 963.56 503.37 955.58 C 503.36 970.10 503.46 984.61 503.33 999.13 C 498.32 998.47 493.21 998.52 488.34 1000.00 L 487.27 1000.00 C 456.09 999.06 424.96 995.44 394.48 988.76 C 403.39 985.08 412.83 982.90 422.01 979.97 Z" />
<path fill="#36459b" d=" M 488.34 1000.00 C 493.21 998.52 498.32 998.47 503.33 999.13 C 509.12 999.62 514.93 999.90 520.74 999.99 L 521.60 1000.00 L 488.34 1000.00 Z" />
</svg>
